# xmcd CD database file
#
# Track frame offsets:
#	300
#	20673
#	42061
#	64568
#	78129
#	99415
#	122876
#	144883
#	164956
#	191548
#	209713
#	233074
#	249196
#	268972
#	289719
#
# Disc length: 4114 seconds
#
# Revision: 13
# Processed by: cddbd v1.5.2PL0 Copyright (c) Steve Scherf et al.
# Submitted via: CDex 1.51
#
DISCID=d6100e0f
DTITLE=Various Artist - SC-7579
DYEAR=1900
DGENRE=Blues
TTITLE0=Poison - Every Rose Has It's Thorn
TTITLE1=Motley Crue - Girls, Girls, Girls
TTITLE2=Damn Yankees - High Enough
TTITLE3=Kiss - Beth
TTITLE4=Aerosmith - Rag Doll
TTITLE5=Night Ranger - Sister Christian
TTITLE6=Ratt - Round And Round
TTITLE7=Scorpions - Rock You Like A Hurricane
TTITLE8=Great White - Once Bitten Twice Shy
TTITLE9=Heart - What About Love
TTITLE10=Led Zeppelin - Black Dog
TTITLE11=Warrant - Cherry Pie
TTITLE12=Extreme - More Than Words
TTITLE13=Quiet Riot - Cum On Feel The Noize
TTITLE14=Bon Jovi - You Give Love A Bad Name
EXTD=
EXTT0=
EXTT1=
EXTT2=
EXTT3=
EXTT4=
EXTT5=
EXTT6=
EXTT7=
EXTT8=
EXTT9=
EXTT10=
EXTT11=
EXTT12=
EXTT13=
EXTT14=
PLAYORDER=
